#!OML:ASF E:\Style4\Style4.ASF
:FULLY-SPECIFIED
:DEGREES
2049
root -0.178707 18.1349 -0.962104 3.9902 -6.39505 3.21065
lowerback 1.6468 2.12347 -1.99652
upperback -0.301032 2.76971 -1.60154
thorax -1.24626 1.39225 -0.598474
lowerneck 1.93719 -2.41821 -7.48456
upperneck 6.91918 -3.55466 5.68363
head 2.15127 -1.8522 3.13184
rclavicle -3.11843e-014 3.95581e-014
rhumerus -89.0362 57.9494 -125.631
rradius 86.0199
rwrist -4.54827
rhand -6.61654 31.958
rfingers 7.12502
rthumb 19.2396 2.88974
lclavicle -3.11843e-014 3.95581e-014
lhumerus -72.2421 -75.004 84.0318
lradius 95.118
lwrist -11.6345
lhand -9.25345 4.19892
lfingers 7.12502
lthumb 16.7025 33.5004
rfemur -8.26566 5.61804 14.8901
rtibia 20.8622
rfoot -15.7686 -14.1253
rtoes -12.8526
lfemur 0.653747 -2.55963 -22.8919
ltibia 8.74852
lfoot -14.3803 15.7259
ltoes -14.2057
2050
root -0.183087 18.134 -0.955131 3.94406 -6.4265 3.1882
lowerback 1.6309 2.10249 -2.04771
upperback -0.307763 2.74052 -1.63859
thorax -1.24472 1.3779 -0.606564
lowerneck 1.92626 -2.42418 -7.47225
upperneck 6.91639 -3.5631 5.70228
head 2.15313 -1.85566 3.13571
rclavicle -6.70898e-016 1.49089e-015
rhumerus -89.0158 57.9152 -125.679
rradius 86.0028
rwrist -4.44729
rhand -6.74119 31.9458
rfingers 7.12502
rthumb 19.1197 2.86555
lclavicle -6.70898e-016 1.49089e-015
lhumerus -76.9006 -74.352 89.5621
lradius 95.3351
lwrist -11.5311
lhand -9.57263 4.22446
lfingers 7.12502
lthumb 16.3952 33.5515
rfemur -8.21913 5.63224 14.9319
rtibia 20.9035
rfoot -15.8351 -14.0682
rtoes -12.839
lfemur 0.668796 -2.54523 -22.8586
ltibia 8.87561
lfoot -14.4538 15.7179
ltoes -14.2778
2051
root -0.186875 18.1306 -0.951143 3.89532 -6.43912 3.13937
lowerback 1.64676 2.08494 -2.0474
upperback -0.325591 2.71546 -1.69338
thorax -1.2691 1.36536 -0.663179
lowerneck 2.05587 -2.43979 -7.36745
upperneck 6.82906 -3.58973 5.69399
head 2.09946 -1.86768 3.11321
rclavicle -2.0773e-014 -2.78299e-015
rhumerus -88.9407 57.8587 -125.706
rradius 85.9793
rwrist -4.40144
rhand -6.74595 31.9898
rfingers 7.12502
rthumb 19.1151 2.90914
lclavicle -2.0773e-014 -2.78299e-015
lhumerus -80.6925 -73.6586 94.2
lradius 95.516
lwrist -11.6929
lhand -10.1409 4.24452
lfingers 7.12502
lthumb 15.8479 33.6159
rfemur -8.16275 5.67859 15.0072
rtibia 20.9467
rfoot -15.8209 -14.1303
rtoes -12.7291
lfemur 0.664281 -2.54712 -22.7949
ltibia 9.02112
lfoot -14.6035 15.7283
ltoes -14.2861
2052
root -0.189345 18.1274 -0.946771 3.87591 -6.45586 3.1072
lowerback 1.59665 2.07555 -2.0336
upperback -0.338117 2.70356 -1.77911
thorax -1.24905 1.35897 -0.756495
lowerneck 2.15321 -2.45695 -7.29689
upperneck 6.7869 -3.62205 5.76842
head 2.07041 -1.88191 3.12578
rclavicle -4.6615e-014 4.57205e-015
rhumerus -88.8331 57.8237 -125.753
rradius 85.948
rwrist -4.43762
rhand -6.87694 32.0791
rfingers 7.12502
rthumb 18.9892 2.98601
lclavicle -4.6615e-014 4.57205e-015
lhumerus -83.665 -72.9326 97.9728
lradius 95.7108
lwrist -11.9897
lhand -10.6531 4.08859
lfingers 7.12502
lthumb 15.3546 33.4985
rfemur -8.14552 5.65196 15.0522
rtibia 20.9899
rfoot -15.8251 -14.1402
rtoes -12.8776
lfemur 0.62392 -2.5476 -22.7643
ltibia 9.1825
lfoot -14.6652 15.8031
ltoes -14.696
2053
root -0.191781 18.1249 -0.941876 3.88756 -6.51238 3.10052
lowerback 1.48985 2.06012 -2.07167
upperback -0.337621 2.68499 -1.85238
thorax -1.1869 1.34942 -0.805369
lowerneck 2.11552 -2.45298 -7.28285
upperneck 6.81422 -3.61695 5.79922
head 2.08636 -1.8782 3.13361
rclavicle 2.78299e-015 -5.96354e-015
rhumerus -88.7557 57.8386 -125.836
rradius 85.8726
rwrist -4.40593
rhand -7.00102 32.0962
rfingers 7.12502
rthumb 18.8698 2.99146
lclavicle 2.78299e-015 -5.96354e-015
lhumerus -86.2407 -72.1108 101.307
lradius 95.9856
lwrist -12.2064
lhand -10.898 4.02825
lfingers 7.12502
lthumb 15.1187 33.4561
rfemur -8.17724 5.65137 15.0564
rtibia 21.0404
rfoot -15.9091 -14.0272
rtoes -12.6648
lfemur 0.534054 -2.51157 -22.761
ltibia 9.37988
lfoot -14.7857 15.7968
ltoes -14.6737
2054
root -0.195173 18.1228 -0.936073 3.86984 -6.59371 3.06568
lowerback 1.41335 2.05592 -2.11535
upperback -0.33508 2.68085 -1.88887
thorax -1.1417 1.34728 -0.815096
lowerneck 2.09415 -2.44118 -7.28975
upperneck 6.8514 -3.60136 5.80477
head 2.10174 -1.87049 3.13705
rclavicle 6.92019e-015 1.70955e-014
rhumerus -88.7079 57.8278 -125.862
rradius 85.8217
rwrist -4.29935
rhand -6.9931 32.13
rfingers 7.12502
rthumb 18.8775 3.02599
lclavicle 6.92019e-015 1.70955e-014
lhumerus -88.475 -71.235 104.303
lradius 96.3092
lwrist -12.3108
lhand -11.0274 4.04842
lfingers 7.12502
lthumb 14.9941 33.4856
rfemur -8.17377 5.65059 15.0999
rtibia 21.0749
rfoot -15.9017 -13.9732
rtoes -12.9523
lfemur 0.455669 -2.44696 -22.7239
ltibia 9.63606
lfoot -14.9632 15.7702
ltoes -14.4429
